PathFileType	4	(X/Y/Z)	C:/Users/beibeiliu/ov580/test_trc/User3\sequence.31_training_dense_right.trc
DataRate	CameraRate	NumFrames	NumMarkers	Units	OrigDataRate	OrigDataStartFrame	OrigNumFrames
120	120	22	19	mm	120	135	268
Frame#	Time	ThumbCMC			ThumbMCP			ThumbIP			ThumbTip			IndexMCP			IndexPIP			IndexTip			MiddleMCP			MiddlePIP			MiddleTip			RingMCP			RingPIP			RingTip			PinkyMCP			PinkyPIP			PinkyTip			BackHand1			BackHand2			BackHand3	
		X0	Y0	Z0	X1	Y1	Z1	X2	Y2	Z2	X3	Y3	Z3	X4	Y4	Z4	X5	Y5	Z5	X6	Y6	Z6	X7	Y7	Z7	X8	Y8	Z8	X9	Y9	Z9	X10	Y10	Z10	X11	Y11	Z11	X12	Y12	Z12	X13	Y13	Z13	X14	Y14	Z14	X15	Y15	Z15	X16	Y16	Z16	X17	Y17	Z17	X18	Y18	Z18	
134	1.11667	195.565	-0.900446	7.41105	168.851	-1.42979	-19.3356	144.579	-21.2114	-30.1432	138.624	-44.5946	-18.6664	177.34	-22.5452	-63.9569	155.876	-12.8083	-76.8495	129.632	2.13235	-83.3688	170.676	-46.2592	-61.8891	155.735	-42.3705	-80.7091	138.811	-34.2034	-111.805	162.515	-56.3033	-49.9944	147.668	-56.5855	-66.1434	127.389	-50.2238	-86.6488	156.028	-65.0431	-28.2083	133.53	-49.796	-40.4794	129.663	-33.1437	-18.6909	190.748	-60.6444	0.00420371	201.902	-56.2615	28.7576	215.004	-30.9639	0.842076	
135	1.125	192.781	-2.58005	-1.70659	160.699	1.175	-20.094	139.075	-26.765	-28.4006	128.141	-43.0342	-24.9726	163.969	-19.2538	-68.1959	138.228	-8.8548	-79.7052	116.724	3.68614	-82.3662	166.729	-46.0309	-71.3905	152.938	-39.5962	-94.2502	128.335	-34.0079	-116.478	154.682	-58.3141	-54.8701	140.386	-57.1294	-72.3189	117.488	-55.5322	-91.5461	142.963	-62.2494	-29.0538	118.426	-44.2904	-28.8048	130.212	-29.1464	-4.61595	191.862	-59.4677	-11.2457	203.498	-61.4963	16.7741	212.197	-33.0144	-13.5833	
136	1.13333	197.068	-1.92075	1.36688	166.681	4.09869	-20.7306	144.746	-20.5559	-27.7462	138.135	-40.8624	-15.7589	169.703	-24.0123	-64.0753	145.494	-10.3578	-80.0402	121.255	4.66214	-75.3119	164.301	-46.3707	-66.9374	148.09	-43.3595	-89.1778	129.13	-39.1857	-115.423	158.728	-56.6372	-50.0837	143.109	-57.1333	-74.2026	122.914	-56.7881	-90.264	147.966	-63.9126	-31.1665	126.109	-49.108	-37.6095	123.679	-31.3272	-13.5517	190.047	-60.8866	-5.08518	203.193	-58.6452	15.7032	210.984	-37.4691	-6.65452	
137	1.14167	200.567	-7.90789	2.91387	170.869	2.44053	-19.7554	146.128	-16.8451	-24.6546	129.083	-41.1901	-16.6099	165.764	-26.165	-63.3196	141.033	-11.4023	-74.2783	118.839	9.02172	-67.0951	163.304	-47.4291	-65.8977	149.672	-42.2341	-90.2876	131.606	-38.2825	-114.225	152.417	-63.3082	-43.4809	138.447	-65.2797	-69.5197	122.463	-64.8824	-87.0997	142.533	-62.5776	-26.3641	121.904	-43.8115	-34.1761	124.733	-25.6198	-11.7115	183.123	-66.6572	-5.31644	198.442	-65.1115	18.3586	209.672	-41.0592	-11.1382	
138	1.15	200.023	-6.07766	4.6825	169.056	3.70581	-19.5861	142.657	-14.913	-26.6657	130.602	-39.1287	-16.2067	162.796	-20.2613	-64.2186	137.559	-6.13177	-72.5513	117.013	8.78109	-67.726	165.309	-48.7323	-64.2683	152.038	-44.1708	-88.2969	132.019	-36.6366	-111.948	155.105	-60.6001	-46.4053	142.665	-60.0526	-69.4246	122.532	-61.0409	-91.0084	145.503	-61.7185	-26.1939	123.059	-46.1894	-34.5934	124.707	-28.7844	-13.3585	187.276	-65.4456	-4.0257	200.799	-65.1934	19.4628	209.553	-41.9512	-10.8612	
139	1.15833	196.655	-3.23802	-0.607971	165.044	-0.549682	-18.1919	140.343	-19.3017	-24.3798	134.991	-44.1859	-15.7703	163.679	-19.9562	-63.9197	133.866	-3.13961	-69.765	114.828	15.4064	-60.569	163.404	-46.2582	-71.7316	149.673	-40.033	-92.6178	125.289	-32.7026	-116.274	155.311	-55.7886	-56.645	138.176	-55.0474	-76.5457	118.154	-55.126	-91.251	149.824	-62.0378	-30.2408	128.703	-51.6112	-44.6158	125.238	-30.6383	-16.9638	186.539	-64.7734	-13.6815	201.081	-64.2893	13.0765	212.996	-35.2159	-11.384	
140	1.16667	198.325	-0.712314	5.17028	168.321	-0.848436	-17.5254	144.462	-19.409	-26.1606	133.236	-42.3495	-15.5484	165.627	-22.291	-58.2772	138.457	-6.15354	-67.7303	119.298	7.87433	-61.1823	167.765	-47.3019	-61.1464	153.001	-40.3269	-90.394	129.305	-37.2314	-113.06	154.746	-59.4875	-49.4956	139.087	-58.9472	-70.1783	120.093	-54.2143	-88.5928	142.543	-57.578	-28.6298	121.485	-38.1382	-26.7261	130.148	-29.5893	2.47921	188.186	-61.7926	-3.2415	199.391	-62.4333	19.9531	212.627	-37.0777	-5.52581	
141	1.175	196.742	-4.8628	3.80323	169.873	1.36305	-18.7133	142.048	-17.5272	-29.2724	134.282	-42.5017	-16.6714	168.773	-23.9053	-59.883	139.663	-7.53647	-71.9554	119.028	11.4355	-67.9668	168.168	-48.2072	-63.8273	153.867	-42.1947	-89.667	134.41	-34.8187	-112.302	155.981	-60.6617	-47.4201	139.821	-60.4818	-70.3004	117	-52.7411	-88.7738	142.998	-60.4644	-25.2259	122.632	-37.8149	-28.4626	130.24	-27.5157	-3.15365	186.904	-63.754	-1.89318	201.539	-62.7234	20.0376	212.656	-35.1119	-6.49379	
142	1.18333	201.192	-0.49782	2.86906	171.123	3.91279	-21.501	145.55	-15.8552	-28.6201	130.557	-41.2131	-20.321	178.848	-29.2368	-66.3076	159.357	-26.178	-86.603	139.907	-13.9965	-98.456	170.677	-48.755	-63.3922	154.682	-46.438	-88.2695	137.444	-35.2257	-113.557	158.795	-61.8725	-48.9689	135.466	-60.4689	-66.6734	112.195	-42.2255	-70.7337	141.256	-59.786	-26.595	122.833	-41.614	-28.67	132.644	-25.2922	-0.792313	185.39	-64.5711	-4.24916	202.665	-59.3158	24.4447	211.141	-40.596	-5.844	
143	1.19167	198.247	-1.77698	1.97695	166.237	2.39349	-18.2524	137.608	-16.3839	-27.5175	130.379	-42.0614	-14.4944	176.455	-27.6795	-69.4119	160.456	-22.0495	-93.0376	145.423	-13.7636	-110.091	170.679	-47.469	-67.5555	152.784	-45.64	-91.717	128.067	-28.6048	-111.113	150.625	-61.4914	-49.8594	125.995	-53.1613	-66.855	107.824	-32.7934	-62.5803	148.662	-68.1919	-27.6989	135.482	-67.067	-46.5473	115.158	-54.3472	-60.4324	186.85	-60.3054	-5.49375	199.213	-61.909	17.5026	208.666	-37.773	-10.2611	
144	1.2	195.611	-0.71932	5.12487	164.329	0.791511	-20.6328	140.437	-20.5219	-30.5286	135.081	-44.1243	-18.6857	184.279	-27.3491	-69.1633	171.146	-24.545	-95.1528	153.601	-20.8506	-112.165	173.386	-47.8069	-63.5884	154.386	-48.0412	-91.0899	128.11	-36.4011	-108.721	154.349	-58.1014	-52.8695	133.082	-48.0809	-68.345	110.525	-24.2687	-54.1108	153.709	-64.8025	-33.9625	140.007	-58.0149	-54.4739	117.867	-35.7001	-52.6545	186.013	-62.0516	-6.13018	199.541	-61.1688	21.2015	209.897	-35.2217	-5.92094	
145	1.20833	193.256	-0.101364	-2.98024	161.157	-4.61465	-23.1369	135.052	-25.0069	-29.7734	132.595	-49.495	-13.8673	184.573	-30.4559	-70.0284	172.291	-24.6769	-100.294	154.418	-20.2248	-116.163	172.13	-55.544	-70.402	153.839	-47.0618	-97.4128	123.45	-28.0026	-103.424	152.73	-63.225	-47.1681	127.687	-51.8131	-64.3566	114.642	-24.3408	-47.6081	131.609	-67.6654	-20.5564	115.16	-45.8593	-29.192	131.984	-24.5588	-16.3667	187.711	-62.3441	-4.79239	197.638	-56.7466	17.2012	209.965	-38.1924	-7.54923	
146	1.21667	191.369	-0.731008	0.503669	156.881	-1.49466	-24.4526	137.965	-23.9892	-31.3476	129.592	-50.326	-23.8407	185.313	-30.8731	-68.1824	171.672	-29.792	-98.8117	152.717	-27.3209	-113.644	175.781	-48.4816	-69.0326	150.832	-44.7749	-93.0211	123.501	-20.5809	-80.6123	155.124	-60.9121	-53.358	126.557	-49.9111	-64.3859	123.996	-24.2507	-48.5511	154.043	-66.238	-39.8238	135.257	-54.3495	-59.8832	120.684	-33.8346	-49.9631	188.297	-59.8068	-14.6401	199.399	-60.2453	17.1892	209.622	-37.0105	-6.48121	
147	1.225	191.198	-1.24994	-0.210749	158.36	-1.60668	-24.4788	137.965	-23.5861	-32.6103	134.19	-50.6526	-22.0181	186.611	-31.2152	-72.2165	174.429	-28.9863	-99.0146	153.542	-17.493	-118.437	175.546	-51.6025	-67.8324	153.046	-46.1357	-94.119	128.632	-21.6244	-72.5257	162.182	-61.0402	-54.882	136.385	-50.3742	-74.4021	127.146	-28.7805	-55.3871	157.739	-64.5061	-40.2003	138.685	-57.9857	-60.0017	124.338	-37.7125	-52.5335	187.311	-59.9288	-11.3204	198.315	-60.7921	14.4186	211.079	-34.8209	-11.0151	
148	1.23333	195.441	-3.292	-3.35165	159.996	0.455977	-21.9755	134.545	-16.3703	-27.7619	131.339	-42.5953	-15.5713	186.166	-33.2771	-75.6609	173.076	-29.3066	-99.8941	148.652	-11.3075	-114.082	170.672	-56.6307	-70.443	151.193	-44.4961	-91.682	136.494	-20.415	-62.2441	156.305	-61.9189	-53.7373	132.368	-50.0494	-70.7212	128.197	-26.2554	-48.399	151.287	-68.7488	-33.6925	135.408	-57.3873	-53.5234	124.959	-34.0751	-39.4168	184.122	-63.4497	-10.7809	198.438	-61.9146	15.0748	210.959	-38.9797	-11.0896	
149	1.24167	193.249	-2.32266	-0.471918	157.391	1.1475	-24.0758	133.146	-21.8862	-29.8712	129.072	-49.9719	-18.5528	188.326	-32.4346	-75.5676	170.781	-28.8281	-100.397	146.798	-12.3955	-106.076	176.352	-53.0957	-71.0961	152.127	-42.985	-92.641	137.851	-19.0429	-63.3179	158.454	-62.498	-59.7663	138.272	-49.5351	-73.2457	129.016	-27.0149	-49.7396	155.282	-67.35	-33.0604	141.088	-59.3871	-55.8634	127.375	-37.9293	-40.8365	186.384	-64.6872	-6.68791	195.577	-60.148	17.7263	210.272	-38.5812	-11.5466	
150	1.25	193.596	-4.20907	1.6263	162.984	-1.35656	-22.0967	140.459	-26.1064	-32.1518	135.043	-49.251	-19.4093	187.749	-31.0978	-69.6567	168.083	-25.1544	-98.5374	141.57	-8.10172	-94.9433	177.919	-51.7994	-67.7234	154.441	-42.4998	-91.5015	138.071	-21.6279	-62.6823	162.04	-60.4897	-56.2315	138.893	-51.8005	-72.9922	129.892	-27.8756	-48.0296	157.337	-63.6831	-33.7463	138.938	-57.4546	-53.8992	123.956	-36.8813	-37.9126	184.938	-63.7904	-9.65043	200.097	-60.2556	16.8369	209.655	-37.9734	-10.6306	
151	1.25833	194.52	-2.45041	0.605973	158.917	0.497516	-24.2947	137.149	-22.923	-32.1546	134.693	-50.2463	-18.2625	183.35	-32.9731	-71.7711	161.725	-26.4236	-95.7304	140.557	-2.64352	-82.7127	176.049	-49.7445	-68.7994	152.39	-41.4434	-91.7616	136.28	-20.955	-63.8303	162.223	-57.345	-55.0003	136.646	-51.3486	-71.5428	129.143	-25.1991	-49.6028	156.18	-63.9231	-33.6619	138.926	-59.5835	-53.6855	124.677	-38.2457	-37.6034	186.05	-60.0199	-8.4882	199.064	-59.3465	12.253	212.909	-35.9426	-7.9461	
152	1.26667	193.851	2.03887	0.00455793	158.871	-2.00986	-25.4196	138.098	-25.1707	-30.6329	131.409	-51.4837	-20.1659	183.656	-29.4757	-73.9211	159.321	-22.5117	-93.9523	139.976	-2.07094	-80.2635	176.123	-47.2586	-71.7087	154.758	-33.6557	-92.9182	136.312	-19.1322	-59.3683	159.682	-61.1524	-59.5684	137.169	-47.0957	-72.284	128.479	-27.2704	-50.0915	155.562	-67.4933	-35.0775	136.571	-58.3431	-54.4042	127.672	-35.8978	-36.9028	187.911	-61.0678	-13.5956	199.967	-58.907	13.3929	210.752	-36.1739	-10.9945	
153	1.275	191.361	1.38703	-2.10398	158.899	1.02809	-21.4729	138.465	-24.3768	-28.5064	131.04	-50.445	-20.4927	180.855	-30.7429	-72.7043	160.621	-21.1358	-93.5754	136.026	-2.94717	-73.8354	175.733	-44.8317	-70.5963	147.718	-34.3516	-90.1023	132.404	-15.35	-62.8501	162.421	-62.6239	-55.2574	139.357	-52.768	-71.0243	127.164	-32.4087	-47.9732	153.651	-66.5036	-30.4792	135.366	-55.5344	-49.869	125.878	-33.4362	-30.093	188.164	-57.949	-6.15694	204.805	-54.1039	19.2603	213.669	-31.8193	-8.51508	
154	1.28333	192.138	-1.10636	-4.49559	159.134	-1.55921	-24.7911	136.842	-22.4381	-30.7502	132.425	-52.0526	-19.2422	184.921	-29.8116	-69.632	163.595	-24.6469	-94.2742	143.634	-4.13154	-75.8424	176.798	-44.6387	-72.7284	153.14	-30.4034	-92.4135	136.327	-18.8106	-62.4819	163.967	-56.5525	-55.4258	138.871	-52.9092	-73.8239	127.865	-27.1141	-54.2179	156.524	-64.2145	-36.5566	139.341	-60.5193	-55.9849	122.494	-34.5401	-44.1263	187.404	-58.6681	-10.681	197.094	-59.8908	19.4182	211.304	-34.338	-9.86331	
155	1.29167	192.689	-1.94193	1.45329	159.653	1.19501	-23.5284	137.714	-26.5718	-32.3826	132.982	-51.6343	-19.7293	186.176	-29.8882	-69.6315	163.046	-24.3751	-94.3863	145.886	-3.49137	-71.6329	177.283	-45.5047	-71.6529	154.529	-33.0672	-92.8171	139.37	-14.7231	-63.0852	161.722	-58.8205	-57.8459	137.523	-47.1156	-73.0827	128.131	-27.8614	-49.9681	155.288	-65.4902	-31.1498	136.741	-58.7317	-54.5817	124.25	-36.6595	-40.3431	187.234	-57.8978	-12.5593	197.895	-60.0422	18.1836	210.371	-36.1997	-8.56392	
